<svg xmlns="http://www.w3.org/2000/svg" width="612" height="792" viewBox="0 0 612 792"><path fill="#9C9C9C" d="M71.4 620.4C32.038 620.4 0 652.438 0 691.8c0 5.64 4.56 10.2 10.2 10.2h122.4c5.641 0 10.2-4.56 10.2-10.2 0-39.362-32.038-71.4-71.4-71.4zm-49.97 61.2c4.06-19.94 19.829-35.607 39.77-39.678V661.2h20.4v-19.278c19.941 4.08 35.71 19.737 39.77 39.678H21.43zm580.37-153h-17.891a111.43 111.43 0 0 0-1.774-4.243l12.658-12.658a10.19 10.19 0 0 0 0-14.423l-43.269-43.268c-2.111-2.112-4.896-3.03-7.66-2.897 16.167-8.578 27.336-25.377 27.336-44.91V141c0-28.122-22.879-51-51-51H51c-28.122 0-51 22.878-51 51v265.2c0 28.121 22.878 51 51 51h133.11l-38.536 71.4H127.5c-19.686 0-35.7 16.015-35.7 35.7 0 19.687 16.014 35.7 35.7 35.7h219.3c0 5.641 4.56 10.2 10.2 10.2h17.891a109.2 109.2 0 0 0 1.775 4.243l-12.658 12.658a10.19 10.19 0 0 0 0 14.423l43.268 43.269a10.19 10.19 0 0 0 14.423 0l12.658-12.658c1.418.632 2.826 1.214 4.243 1.774V691.8c0 5.641 4.56 10.2 10.2 10.2H510c5.641 0 10.2-4.56 10.2-10.2v-17.891a110.755 110.755 0 0 0 4.243-1.774l12.658 12.658a10.19 10.19 0 0 0 14.423 0l43.269-43.269a10.19 10.19 0 0 0 0-14.423l-12.658-12.658a106.141 106.141 0 0 0 1.774-4.243H601.8c5.641 0 10.2-4.56 10.2-10.2v-61.2c0-5.641-4.56-10.2-10.2-10.2zM20.4 141c0-16.871 13.729-30.6 30.6-30.6h469.2c16.87 0 30.6 13.729 30.6 30.6v214.2H20.4V141zM51 436.8c-16.871 0-30.6-13.729-30.6-30.6v-30.6h530.4v30.6c0 16.87-13.729 30.6-30.6 30.6H51zm485.969 17.34l-12.525 12.526a106.168 106.168 0 0 0-4.243-1.775v-7.69c5.904-.001 11.485-1.205 16.768-3.061zM438.6 457.2v7.69a109.857 109.857 0 0 0-4.243 1.775l-9.465-9.466H438.6zm-34.527 0l-8.793 8.792-5.987-8.792h14.78zM346.8 579.6H127.5c-8.436 0-15.3-6.864-15.3-15.3s6.864-15.3 15.3-15.3h219.3v30.6zm-178.046-51.01l38.53-71.39h157.325l15.993 23.47-16.595 16.596a10.19 10.19 0 0 0 0 14.423l12.658 12.658a106.168 106.168 0 0 0-1.775 4.243H168.754zM591.6 589.8h-14.882a10.205 10.205 0 0 0-9.73 7.13c-1.55 4.927-3.642 9.945-6.222 14.882a10.204 10.204 0 0 0 1.836 11.935l10.567 10.566-28.846 28.846-10.567-10.567a10.223 10.223 0 0 0-11.934-1.836c-4.938 2.581-9.956 4.672-14.882 6.223a10.223 10.223 0 0 0-7.141 9.74V681.6H459v-14.882c0-4.457-2.887-8.384-7.13-9.73-4.927-1.55-9.945-3.642-14.882-6.222a10.218 10.218 0 0 0-11.934 1.836l-10.567 10.567-28.846-28.846 10.567-10.567a10.205 10.205 0 0 0 1.836-11.934c-2.581-4.938-4.672-9.956-6.222-14.882a10.225 10.225 0 0 0-9.741-7.141H367.2V549h14.882c4.457 0 8.384-2.887 9.73-7.13 1.551-4.927 3.642-9.945 6.222-14.882a10.202 10.202 0 0 0-1.836-11.934l-10.566-10.567 28.845-28.846 10.567 10.567a10.19 10.19 0 0 0 11.935 1.836c4.937-2.581 9.955-4.672 14.882-6.222a10.226 10.226 0 0 0 7.14-9.741V457.2h40.8v14.882c0 4.457 2.887 8.384 7.13 9.73 4.927 1.551 9.945 3.642 14.882 6.222a10.189 10.189 0 0 0 11.934-1.836l10.567-10.566 28.846 28.845-10.567 10.567a10.206 10.206 0 0 0-1.836 11.935c2.581 4.937 4.672 9.955 6.223 14.882a10.223 10.223 0 0 0 9.74 7.14h14.88V589.8z"/><path fill="#9C9C9C" d="M479.4 508.2c-33.752 0-61.2 27.448-61.2 61.2 0 33.751 27.448 61.199 61.2 61.199 33.751 0 61.199-27.448 61.199-61.199.001-33.752-27.448-61.2-61.199-61.2zm0 102c-22.502 0-40.801-18.299-40.801-40.8 0-22.502 18.299-40.801 40.801-40.801 22.501 0 40.8 18.299 40.8 40.801 0 22.501-18.299 40.8-40.8 40.8zM201.011 168.611l-14.423-14.423-71.4 71.4a10.188 10.188 0 0 0 0 14.422l71.4 71.4 14.423-14.422-64.188-64.188 64.188-64.189zm224.4 56.978l-71.399-71.4-14.423 14.423 64.188 64.188-64.188 64.189 14.423 14.422 71.399-71.4a10.188 10.188 0 0 0 0-14.422zm-100.118-90.172l-91.77 183.541-18.246-9.123 91.77-183.541zM397.8 294h20.4v20.4h-20.4zm40.8 0H459v20.4h-20.4zm40.8 0h20.399v20.4H479.4z"/></svg>