<svg xmlns="http://www.w3.org/2000/svg" width="612" height="792" viewBox="0 0 612 792"><g fill="#9C9C9C"><path d="M520.194 171.611h-21.745l30.232-45.348c3.131-4.682 1.866-11.016-2.826-14.137-4.702-3.132-11.036-1.856-14.147 2.826l-40.799 61.199a10.23 10.23 0 0 0-.511 10.465 10.195 10.195 0 0 0 8.996 5.396h21.746l-30.232 45.338c-3.132 4.682-1.856 11.027 2.825 14.147a10.192 10.192 0 0 0 14.146-2.835l40.799-61.199a10.206 10.206 0 0 0 .511-10.465 10.203 10.203 0 0 0-8.995-5.387zM152.981 416.396h.021c5.62 0 10.179-4.56 10.199-10.18.011-4.396 1.408-107.955 95.286-142.145 5.294-1.928 8.027-7.783 6.1-13.077-1.928-5.283-7.792-8.027-13.077-6.089-107.465 39.136-108.709 160.086-108.709 161.299.001 5.621 4.56 10.182 10.18 10.192z"/><path d="M255 232.81h49.643l-8.761 70.134c-.581 4.579 2.009 8.986 6.293 10.72 1.244.5 2.54.745 3.825.745a10.18 10.18 0 0 0 8.16-4.08l91.798-122.397a10.207 10.207 0 0 0 .97-10.689 10.22 10.22 0 0 0-9.129-5.63h-49.643l8.762-70.133a10.202 10.202 0 0 0-6.293-10.73 10.177 10.177 0 0 0-11.985 3.346l-91.8 122.395a10.21 10.21 0 0 0-.958 10.679 10.194 10.194 0 0 0 9.118 5.64zm76.916-95.756l-5.436 43.492a10.2 10.2 0 0 0 10.118 11.465h40.799l-56.518 75.346 5.437-43.482c.367-2.907-.531-5.824-2.469-8.017s-4.723-3.447-7.649-3.447h-40.799l56.517-75.357zM174.86 207.453c1.908 3.193 5.283 4.957 8.752 4.957 1.785 0 3.6-.47 5.243-1.458 4.824-2.896 6.395-9.159 3.499-13.994l-30.599-51a10.216 10.216 0 0 0-8.507-4.947c-3.56-.337-6.784 1.631-8.73 4.539l-11.914 17.87-32.313-48.469c-3.121-4.682-9.455-5.956-14.147-2.826-4.682 3.121-5.958 9.455-2.826 14.137l40.799 61.199c3.784 5.681 13.189 5.681 16.972 0l11.455-17.187 22.316 37.179z"/><path d="M489.596 438.55v-52.743c0-42.34-23.449-122.397-112.198-122.397a10.19 10.19 0 0 0-10.2 10.199c0 5.63 4.56 10.199 10.2 10.199 90.432 0 91.787 97.847 91.798 101.998v61.199c0 5.63 4.559 10.199 10.199 10.199 5.63 0 10.199 4.57 10.199 10.2v40.799c0 5.62-4.569 10.199-10.199 10.199a10.182 10.182 0 0 0-9.547 6.619c-.306.806-30.426 80.844-49.938 110.117l-1.673 2.529c-12.219 18.533-28.968 43.931-91.839 43.931-62.871 0-79.609-25.397-91.838-43.931l-1.672-2.529c-19.512-29.273-49.632-109.312-49.928-110.117a10.204 10.204 0 0 0-9.558-6.619c-5.63 0-10.2-4.579-10.2-10.199v-40.799a10.22 10.22 0 0 1 2.896-7.119c4.059 9.107 12.678 17.319 27.703 17.319 3.866 0 7.396-2.183 9.128-5.641 9.344-18.686 18.533-52.978 20.899-76.06 32.14-.571 125.152-4.498 166.542-30.325 9.384 36.24 39.504 66.727 41.014 68.237 3.988 3.978 10.444 3.978 14.423 0 3.988-3.987 3.988-10.444 0-14.423-.378-.377-37.811-38.229-37.811-74.387 0-4.59-3.061-8.608-7.477-9.833-4.386-1.224-9.119.643-11.465 4.579-14.84 24.725-111.188 35.853-174.855 35.853A10.19 10.19 0 0 0 204 385.803c0 16.555-7.823 49.612-16.146 69.971-3.253-1.958-4.172-5.609-4.253-8.772a10.19 10.19 0 0 0-10.199-10.199c-16.871 0-30.6 13.718-30.6 30.6v40.799c0 14.32 9.904 26.387 23.235 29.701 7.436 19.359 32.028 81.772 49.877 108.547l1.611 2.448c13.106 19.858 35.016 53.101 108.873 53.101 73.856 0 95.776-33.241 108.873-53.101l1.611-2.448c17.849-26.774 42.44-89.187 49.888-108.547 13.321-3.314 23.224-15.381 23.224-29.701v-40.799c.001-13.299-8.526-24.641-20.398-28.853z"/><path d="M377.397 508.204c5.64 0 10.199-4.569 10.199-10.199h10.199c5.641 0 10.199-4.569 10.199-10.199a10.19 10.19 0 0 0-10.199-10.199h-40.799a10.19 10.19 0 0 0-10.199 10.199c0 5.63 4.559 10.199 10.199 10.199h10.199c.002 5.63 4.562 10.199 10.202 10.199zm-71.398-20.4a10.19 10.19 0 0 0-10.2-10.199H255a10.19 10.19 0 0 0-10.199 10.199c0 5.63 4.559 10.2 10.199 10.2h10.2c0 5.63 4.559 10.199 10.199 10.199s10.199-4.569 10.199-10.199h10.2a10.196 10.196 0 0 0 10.201-10.2zm20.399 132.597c23.939 0 36.465-11.842 37.811-13.188 3.938-3.938 3.927-10.242.062-14.24-3.886-3.998-10.303-4.11-14.361-.306-.317.306-8.017 7.333-23.511 7.333-15.269 0-22.96-6.833-23.489-7.313-3.967-3.886-10.363-3.856-14.321.102-3.978 3.978-3.978 10.435 0 14.422 1.345 1.349 13.87 13.19 37.809 13.19z"/></g></svg>