<svg xmlns="http://www.w3.org/2000/svg" width="612" height="792" viewBox="0 0 612 792"><g fill="#9C9C9C"><path d="M76.491 555.774c5.407-5.407 5.407-14.176 0-19.585-5.408-5.406-14.176-5.406-19.585 0l-52.85 52.853c-5.408 5.408-5.408 14.176 0 19.585a13.808 13.808 0 0 0 9.792 4.057c3.544 0 7.089-1.354 9.792-4.057l52.851-52.853zm348.52-370.738c-12.28 12.281-19.044 28.609-19.044 45.976 0 17.368 6.764 33.696 19.044 45.977C437.686 289.663 454.336 296 470.986 296s33.3-6.336 45.975-19.011c12.282-12.28 19.044-28.608 19.044-45.977 0-17.366-6.764-33.694-19.044-45.976-25.35-25.35-66.598-25.35-91.95 0zm72.367 72.368c-14.553 14.556-38.229 14.554-52.784 0-7.05-7.05-10.931-16.42-10.931-26.393 0-9.969 3.883-19.342 10.931-26.392 7.277-7.277 16.834-10.915 26.393-10.915 9.557 0 19.117 3.639 26.392 10.915 7.05 7.05 10.933 16.422 10.933 26.392-.001 9.973-3.884 19.343-10.934 26.393zM120.164 579.862c-5.408-5.406-14.176-5.406-19.583 0l-74.135 74.137c-5.408 5.408-5.408 14.177 0 19.585a13.81 13.81 0 0 0 9.792 4.057c3.544 0 7.089-1.354 9.792-4.057l74.135-74.137c5.407-5.409 5.407-14.176-.001-19.585z"/><path d="M603.184 108.458a13.853 13.853 0 0 0-9.64-9.641c-50.469-14.007-105.134-11.282-158.088 7.876-41.032 14.846-80.939 39.733-109.487 68.284l-43.062 43.061-156 24.368c-2.9.453-5.58 1.815-7.655 3.89L19.477 346.07c-3.886 3.887-5.107 9.702-3.112 14.821s6.831 8.575 12.32 8.806l98.42 4.139-24.667 24.667c-5.408 5.407-5.408 14.176 0 19.585l14.397 14.396-43.001 65.914a13.847 13.847 0 0 0 1.806 17.358l110.604 110.603a13.847 13.847 0 0 0 17.36 1.806l65.911-43.003 14.397 14.397c5.408 5.406 14.176 5.406 19.585 0l24.667-24.667 4.139 98.418a13.85 13.85 0 0 0 13.833 13.265c3.605 0 7.147-1.411 9.794-4.056l99.775-99.774a13.865 13.865 0 0 0 3.891-7.655l24.369-156 43.06-43.061c28.549-28.549 53.438-68.455 68.284-109.486 19.156-52.952 21.879-107.618 7.875-158.085zm-405.302 490.37l-94.71-94.71 33.679-51.622 46.534 46.534-5.473 5.473c-5.409 5.407-5.409 14.176 0 19.585 5.408 5.406 14.176 5.406 19.585 0l5.473-5.473 46.534 46.534-51.622 33.679zm309.557-242.38l-46.253 46.254-.017.017-48.127 48.127c-5.407 5.407-5.407 14.176 0 19.585 5.408 5.406 14.177 5.406 19.585 0l18.116-18.116-17.815 114.042-74.279 74.281-3.883-92.346 38.694-38.694c5.408-5.408 5.408-14.176 0-19.585-5.407-5.406-14.176-5.406-19.585 0l-42.957 42.957-.069.069-37.145 37.144-12.348-12.348a14.428 14.428 0 0 0-.429-.428l-58.375-58.377 167.482-167.48c5.407-5.408 5.408-14.176 0-19.585-5.406-5.405-14.175-5.406-19.584 0L202.968 479.448 144.59 421.07c-.139-.145-.28-.285-.425-.426l-12.348-12.35 37.146-37.145a2.18 2.18 0 0 0 .068-.068l42.957-42.957c5.409-5.408 5.409-14.176 0-19.585-5.406-5.406-14.176-5.406-19.583 0l-38.695 38.695-92.345-3.884 74.279-74.279 114.042-17.814-18.116 18.114 19.584 19.585 47.981-47.981c.104-.101.208-.204.309-.309l46.108-46.107c38.535-38.534 130.036-95.63 232.924-71.035 24.593 102.889-32.502 194.391-71.037 232.924zM146.226 625.509L93.374 678.36c-5.407 5.407-5.407 14.176 0 19.585 2.705 2.703 6.249 4.056 9.792 4.056s7.089-1.353 9.792-4.056l52.852-52.852c5.408-5.407 5.408-14.176 0-19.585-5.407-5.406-14.175-5.406-19.584.001z"/></g></svg>