<svg xmlns="http://www.w3.org/2000/svg" width="612" height="792" viewBox="0 0 612 792"><path fill="#9C9C9C" d="M574.174 398.16c-.916-4.975-3.928-9.164-8.247-11.782-99.491-59.302-157.877-71.607-200.553-80.509-5.498-1.178-10.865-2.226-15.971-3.404l-18.459-151.724C330.29 117.229 302.799 90 269.156 90c-33.251 0-60.087 25.658-61.789 58.647 0 .654-.131 1.178-.131 1.833v89.28l-1.44 217.964-23.564-18.196c-4.582-3.928-36.523-29.717-76.058-29.717-26.706 0-50.4 11.259-70.429 33.251-5.629 6.153-6.153 15.316-1.309 22.124 1.702 2.356 42.284 59.171 105.906 117.032 37.702 34.168 75.665 61.527 112.843 81.295 47.389 25.135 93.731 38.095 137.848 38.487h2.095c60.218 0 107.083-19.898 139.287-59.04 71.737-87.186 42.937-238.386 41.759-244.8zm-69.12 222.545c-25.135 30.633-62.836 46.08-111.927 46.08h-1.833c-87.578-.654-171.622-60.218-226.604-110.095-43.854-39.796-76.974-79.854-92.16-99.49 10.342-7.985 21.469-11.913 33.774-11.913 28.407 0 53.018 21.076 53.149 21.338.262.263.655.524.917.786l52.233 40.188c5.367 4.059 12.436 4.844 18.589 1.833 6.022-2.88 9.818-9.032 9.949-15.709l1.702-253.702v-88.887c.393-14.4 12.044-25.658 26.444-25.658 14.662 0 26.443 11.913 26.443 26.443 0 .655 0 1.44.131 2.095l19.767 164.814c.917 7.2 6.022 13.091 12.96 14.924 9.426 2.487 19.113 4.582 29.455 6.676 41.367 8.64 92.684 19.505 182.749 72.13 4.451 30.373 17.149 143.871-35.738 208.147z"/></svg>