<svg xmlns="http://www.w3.org/2000/svg" width="612" height="792" viewBox="0 0 612 792"><g fill="#9C9C9C"><path d="M103.033 592.531c15.271-10.73 25.29-28.438 25.29-48.467 0-32.663-26.563-59.226-59.226-59.226S9.871 511.401 9.871 544.064c0 20.028 10.019 37.736 25.289 48.467C14.204 604.406 0 626.882 0 652.646V702h138.193v-49.354c0-25.764-14.204-48.24-35.16-60.115zm-73.42-48.467c0-21.775 17.708-39.483 39.484-39.483s39.484 17.708 39.484 39.483-17.708 39.484-39.484 39.484-39.484-17.708-39.484-39.484zm88.839 138.194h-98.71v-29.612c0-27.215 22.141-49.355 49.355-49.355s49.355 22.141 49.355 49.355v29.612zm142.517-89.727c15.271-10.73 25.289-28.438 25.289-48.467 0-32.663-26.563-59.226-59.226-59.226s-59.226 26.563-59.226 59.226c0 20.028 10.019 37.736 25.289 48.467-20.956 11.875-35.16 34.351-35.16 60.114V702h138.193v-49.354c.001-25.764-14.203-48.24-35.159-60.115zm-73.421-48.467c0-21.775 17.708-39.483 39.484-39.483s39.484 17.708 39.484 39.483-17.708 39.484-39.484 39.484-39.484-17.708-39.484-39.484zm88.839 138.194h-98.71v-29.612c0-27.215 22.141-49.355 49.355-49.355s49.355 22.141 49.355 49.355v29.612zm142.517-89.727c15.271-10.73 25.289-28.438 25.289-48.467 0-32.663-26.563-59.226-59.226-59.226s-59.226 26.563-59.226 59.226c0 20.028 10.019 37.736 25.289 48.467-20.956 11.875-35.16 34.351-35.16 60.114V702h138.193v-49.354c.001-25.764-14.203-48.24-35.159-60.115zm-73.42-48.467c0-21.775 17.708-39.483 39.483-39.483s39.483 17.708 39.483 39.483-17.708 39.484-39.483 39.484-39.483-17.708-39.483-39.484zm88.838 138.194h-98.709v-29.612c0-27.215 22.141-49.355 49.354-49.355s49.354 22.141 49.354 49.355v29.612zm142.518-89.727c15.271-10.73 25.289-28.438 25.289-48.467 0-32.663-26.563-59.226-59.226-59.226s-59.226 26.563-59.226 59.226c0 20.028 10.019 37.736 25.289 48.467-20.956 11.875-35.16 34.351-35.16 60.114V702H612v-49.354c0-25.764-14.204-48.24-35.16-60.115zm-73.421-48.467c0-21.775 17.709-39.483 39.484-39.483s39.483 17.708 39.483 39.483-17.708 39.484-39.483 39.484-39.484-17.708-39.484-39.484zm88.839 138.194h-98.709v-29.612c0-27.215 22.141-49.355 49.354-49.355s49.354 22.141 49.354 49.355v29.612zm-98.709-256.645c21.775 0 39.483 17.708 39.483 39.483h19.742c0-25.19-15.833-46.689-38.043-55.238C572.072 383.148 612 325.117 612 257.807 612 165.276 536.724 90 444.193 90H167.807C75.276 90 0 165.276 0 257.807c0 67.31 39.928 125.341 97.269 152.052-22.21 8.549-38.043 30.048-38.043 55.238h19.742c0-21.775 17.708-39.483 39.484-39.483h39.484v-.504c3.287.197 6.535.504 9.871.504h49.354v39.483h19.742v-39.483h138.193v39.483h19.742v-39.483h49.354c3.337 0 6.584-.307 9.871-.504v.504h39.486zm-49.356-19.742H167.807c-81.643 0-148.065-66.422-148.065-148.064 0-81.643 66.422-148.064 148.065-148.064h276.387c81.643 0 148.064 66.421 148.064 148.064 0 81.642-66.422 148.064-148.065 148.064z"/><path d="M217.161 168.968h177.678v19.742H217.161zm0 39.484h177.678v19.742H217.161zm0 39.484h177.678v19.742H217.161zm0 39.483h177.678v19.742H217.161zm0 39.484h138.193v19.742H217.161zm157.936 0h19.742v19.742h-19.742z"/><path d="M562.646 208.452c0-16.327-13.287-29.613-29.613-29.613s-29.613 13.286-29.613 29.613c0 8.193 3.347 15.606 8.736 20.976L486.6 297.586c-.978-.099-1.925-.296-2.922-.296-8.44 0-16.021 3.593-21.42 9.278l-27.936-6.12V129.484H177.677v114.829l-19.929-4.363c.04-.631.188-1.244.188-1.885 0-16.327-13.286-29.613-29.613-29.613S98.71 221.738 98.71 238.065c0 5.291 1.51 10.187 3.949 14.491l-19.101 25.457c-1.5-.237-3.021-.464-4.59-.464-16.327 0-29.613 13.287-29.613 29.613 0 16.327 13.286 29.613 29.613 29.613s29.613-13.287 29.613-29.613c0-7.521-2.912-14.323-7.551-19.554l16.524-22.032c3.346 1.323 6.959 2.103 10.77 2.103 8.439 0 16.021-3.593 21.42-9.279l27.935 6.12v121.61h256.645v-65.474l19.93 4.363c-.039.631-.188 1.244-.188 1.885 0 16.327 13.286 29.613 29.613 29.613 16.326 0 29.612-13.286 29.612-29.613 0-8.193-3.346-15.606-8.735-20.976l25.556-68.159c.978.099 1.925.296 2.922.296 16.324-.001 29.612-13.287 29.612-29.613zM78.968 317.032c-5.449 0-9.871-4.422-9.871-9.871s4.422-9.871 9.871-9.871 9.871 4.422 9.871 9.871-4.422 9.871-9.871 9.871zm49.355-69.096c-5.449 0-9.871-4.422-9.871-9.871s4.422-9.871 9.871-9.871 9.871 4.422 9.871 9.871-4.423 9.871-9.871 9.871zm286.258 118.451H197.419V149.226h217.162v217.161zm69.097-29.613c-5.449 0-9.871-4.422-9.871-9.871s4.422-9.871 9.871-9.871c5.448 0 9.871 4.422 9.871 9.871s-4.423 9.871-9.871 9.871zm49.354-118.451c-5.448 0-9.871-4.422-9.871-9.871s4.423-9.871 9.871-9.871c5.449 0 9.871 4.422 9.871 9.871s-4.422 9.871-9.871 9.871z"/></g></svg>