<svg xmlns="http://www.w3.org/2000/svg" width="612" height="792" viewBox="0 0 612 792"><path fill="#9C9C9C" d="M568.242 586.075h-81.641c-5.918 0-10.71-4.798-10.71-10.71v-402.39c0-5.912 4.792-10.71 10.71-10.71h81.641c5.918 0 10.71 4.798 10.71 10.71v402.39c0 5.912-4.798 10.71-10.71 10.71zm-70.93-21.42h60.221v-380.97h-60.221v380.97zm-77.504 21.42H338.16c-5.918 0-10.71-4.798-10.71-10.71V297.211c0-5.912 4.792-10.71 10.71-10.71h81.647c5.918 0 10.71 4.798 10.71 10.71v278.154c.001 5.912-4.797 10.71-10.709 10.71zm-70.937-21.42h60.227V307.921h-60.227v256.734zm-75.032 21.42h-81.647c-5.918 0-10.71-4.798-10.71-10.71V346.477c0-5.912 4.792-10.71 10.71-10.71h81.647c5.918 0 10.71 4.798 10.71 10.71v228.888c0 5.912-4.792 10.71-10.71 10.71zm-70.937-21.42h60.227V357.187h-60.227v207.468zm-77.503 21.42H43.758c-5.918 0-10.71-4.798-10.71-10.71V417.163c0-5.912 4.792-10.71 10.71-10.71h81.641c5.918 0 10.71 4.798 10.71 10.71v158.202c0 5.912-4.792 10.71-10.71 10.71zm-70.931-21.42h60.221V427.873H54.468v136.782zm29.884-171.868c-19.291 0-34.988-15.692-34.988-34.988s15.692-34.988 34.988-34.988c10.386 0 19.731 4.553 26.139 11.763l84.15-49.811a35.905 35.905 0 0 1-.233-4.076c0-19.291 15.692-34.982 34.988-34.982 11.426 0 21.585 5.502 27.975 14.002l83.929-25.123a56.58 56.58 0 0 1-.012-1.016c0-19.291 15.691-34.988 34.988-34.988a34.797 34.797 0 0 1 17.889 4.927l95.912-99.279a34.757 34.757 0 0 1-4.045-16.322c0-19.291 15.691-34.982 34.987-34.982 19.284 0 34.982 15.692 34.982 34.982s-15.691 34.988-34.982 34.988a34.758 34.758 0 0 1-15.63-3.69l-97.021 100.429a34.824 34.824 0 0 1 2.895 13.936c0 19.29-15.691 34.981-34.987 34.981-11.316 0-21.396-5.397-27.791-13.758l-84.107 25.178c.006.239.006.478.006.716 0 19.29-15.691 34.988-34.988 34.988-10.184 0-19.364-4.37-25.765-11.34l-84.468 49.995c.116 1.144.171 2.295.171 3.47.006 19.296-15.686 34.988-34.982 34.988zm0-48.55c-7.485 0-13.568 6.089-13.568 13.568 0 7.479 6.083 13.568 13.568 13.568s13.568-6.096 13.568-13.574c0-1.652-.3-3.231-.838-4.7-.049-.116-.098-.232-.135-.349-2.001-4.982-6.891-8.513-12.595-8.513zm132.571-58.207c2.081 4.834 6.891 8.225 12.473 8.225 7.485 0 13.568-6.089 13.568-13.568 0-1.53-.257-3.005-.728-4.382-.055-.147-.11-.294-.153-.441-1.952-5.104-6.903-8.739-12.681-8.739-7.484 0-13.568 6.083-13.568 13.562 0 1.763.337 3.439.949 4.981.049.123.097.246.14.362zm159.353-66.029c-7.485 0-13.568 6.089-13.568 13.568 0 7.479 6.083 13.562 13.568 13.562 7.484 0 13.567-6.083 13.567-13.562 0-3.256-1.15-6.249-3.072-8.586-.036-.043-.073-.086-.104-.129a13.533 13.533 0 0 0-10.391-4.853zM521.021 74.345c-7.485 0-13.568 6.083-13.568 13.562 0 7.479 6.083 13.568 13.568 13.568 7.479 0 13.562-6.089 13.562-13.568-.001-7.479-6.091-13.562-13.562-13.562z"/></svg>