<svg xmlns="http://www.w3.org/2000/svg" width="612" height="792" viewBox="0 0 612 792"><path fill="#9C9C9C" d="M73.44 99.18c-13.562 0-24.48 10.102-24.48 22.759V419.14c0 12.658 10.918 22.76 24.48 22.76h465.12c13.563 0 24.48-10.102 24.48-22.76V121.939c0-12.658-10.918-22.76-24.48-22.76H73.44zm255.51 73.63c8.095-1.116 15.762 7.483 13.388 15.3l-48.96 171.36c-1.751 6.21-9.043 10.24-15.3 8.607-6.243-1.63-10.169-9.092-8.415-15.3l48.959-171.36c1.251-4.677 5.522-8.012 10.328-8.606zm-91.417 24.099c5.561-.712 11.411 2.91 13.196 8.223 1.787 5.313-.684 11.745-5.546 14.535l-81.282 50.873 81.282 50.68c5.458 3.404 7.421 11.375 4.017 16.83-3.405 5.459-11.564 7.423-17.021 4.018l-97.92-61.2c-8.24-5.326-7.079-16.488 0-20.846l97.92-61.2a12.293 12.293 0 0 1 5.354-1.913zm135.213 0a12.326 12.326 0 0 1 7.076 1.912l97.92 61.2c7.079 4.358 8.207 15.703 0 20.846l-97.92 61.2c-5.457 3.406-13.425 1.44-16.83-4.017-3.405-5.456-1.634-13.427 3.825-16.83l81.281-50.681-81.281-50.873c-4.522-2.688-6.872-8.49-5.547-13.58 1.327-5.087 6.218-9.036 11.476-9.177zM250.538 454.14c-.744 18.647-3.546 35.577-10.328 48.959h131.58c-6.781-13.382-9.583-30.312-10.327-48.96H250.538zm-60.818 61.2c-6.76 0-12.24 5.48-12.24 12.24s5.48 12.24 12.24 12.24h232.56c6.76 0 12.239-5.48 12.239-12.24s-5.479-12.24-12.239-12.24H189.72z"/></svg>