<svg xmlns="http://www.w3.org/2000/svg" width="612" height="792" viewBox="0 0 612 792"><path fill="#9C9C9C" d="M165.24 56.34c-16.847 0-30.6 13.754-30.6 30.6v465.12c0 16.847 13.753 30.6 30.6 30.6h281.52c16.847 0 30.601-13.753 30.601-30.6a6.12 6.12 0 0 0-6.034-6.206 6.12 6.12 0 0 0-6.206 6.206c0 10.277-8.083 18.36-18.36 18.36H165.24c-10.277 0-18.36-8.083-18.36-18.36V86.94c0-10.277 8.083-18.36 18.36-18.36h281.52c10.277 0 18.36 8.083 18.36 18.36v102.51a148.945 148.945 0 0 0-30.601-4.4V105.3a6.12 6.12 0 0 0-6.119-6.12H183.6a6.104 6.104 0 0 0-1.147 0 6.121 6.121 0 0 0-4.973 6.12v336.6a6.12 6.12 0 0 0 6.12 6.12h244.8a6.118 6.118 0 0 0 6.119-6.12v-98.11c10.663-.424 20.941-1.923 30.601-4.398V503.1a6.12 6.12 0 1 0 12.24.174V335.757c10.375-3.736 19.854-8.705 28.113-14.535 20.025-14.135 33.086-34.18 33.086-56.801s-13.061-42.856-33.086-56.992c-8.259-5.83-17.738-10.455-28.113-14.153V86.94c0-16.846-13.754-30.6-30.601-30.6H165.24zm24.48 55.08h232.56v73.63c-27.464 1.072-52.31 9.216-70.954 22.377-20.025 14.136-33.086 34.37-33.086 56.992 0 21.015 11.395 39.809 29.069 53.74l-10.519 42.65a6.12 6.12 0 0 0 8.223 7.076l62.348-25.627c4.843.68 9.839 1.25 14.918 1.53v91.992H189.72V111.42zM428.4 197.1c27.563 0 52.368 7.828 69.997 20.272 17.63 12.444 27.923 29.11 27.923 47.047s-10.293 34.412-27.923 46.856c-17.629 12.444-42.435 20.464-69.997 20.464-7.178 0-14.226-.69-21.038-1.722a6.113 6.113 0 0 0-3.251.383l-52.594 21.61 8.606-34.615a6.122 6.122 0 0 0-2.295-6.312c-17.291-12.394-27.349-28.893-27.349-46.665 0-17.937 10.293-34.603 27.922-47.047 17.631-12.443 42.437-20.271 69.999-20.271zM306 478.62c-16.828 0-30.6 13.772-30.6 30.6 0 16.828 13.772 30.6 30.6 30.6 16.827 0 30.6-13.771 30.6-30.6 0-16.827-13.773-30.6-30.6-30.6zm0 12.24c10.213 0 18.551 8.147 18.551 18.36s-8.338 18.36-18.551 18.36c-10.212 0-18.36-8.147-18.36-18.36s8.148-18.36 18.36-18.36z"/></svg>