<svg xmlns="http://www.w3.org/2000/svg" width="612" height="792" viewBox="0 0 612 792"><path fill="#9C9C9C" d="M374.256 571.467c-25.991 0-48.194-.35-67.876-1.047-24.805-.894-60.95-1.34-107.449-1.34-52.473 0-99.744.594-100.215.6l-.955.019c-22.24 0-37.729-25.545-40.857-34.677-.196-.587-2.289-7.441-2.105-13.562h-.098l-.63-9.468c1.15-57.265.991-109.462-.496-160.307-1.854-63.158-.41-121.61 1.505-186.158.141-4.81.232-9.522.324-14.217.777-42.063 1.518-81.763 44.364-82.853 33.201-.844 75.185-1.297 118.214-1.297 45.147 0 88.93.514 123.288 1.414 15.288.392 31.818-.03 47.853-.453 11.774-.312 23.941-.625 35.759-.625 12.375 0 22.987.355 32.437 1.096 3.5.269 7.331.392 12.063.392 3.476 0 7.014-.067 10.557-.128 18.445-.355 38.042-.992 54.529 8.959 26.738 16.151 25.098 68.171 23.782 109.964-.33 10.392-.637 20.214-.459 28.439.789 37.559.508 75.35.232 111.892-.244 32.124-.489 65.349-.012 98.293l.012.905c.991 68.018 1.646 112.957-17.43 132.309-7.166 7.271-16.836 10.802-29.572 10.802-21.321 0-43.599.251-66.218.508-23.367.27-47.101.54-70.547.54zm-175.319-8.507c46.567 0 82.792.446 107.663 1.34 19.608.704 41.738 1.047 67.663 1.047 23.421 0 47.13-.27 70.472-.539 22.644-.257 44.939-.508 66.285-.508 11.011 0 19.254-2.932 25.209-8.978 17.271-17.528 16.634-61.445 15.667-127.921l-.013-.911c-.483-33.006-.232-66.262.013-98.422.27-36.506.557-74.248-.232-111.714-.178-8.391.135-18.287.465-28.764 1.267-40.202 2.84-90.233-20.832-104.536-15.031-9.07-33.733-8.396-51.243-8.078a526.34 526.34 0 0 1-10.673.134c-4.891 0-8.868-.128-12.54-.416-9.29-.722-19.743-1.071-31.959-1.071-11.732 0-23.862.318-35.594.63-16.12.422-32.754.856-48.177.453-34.297-.899-78.03-1.401-123.122-1.401-42.975 0-84.909.465-118.061 1.31-36.996.937-37.613 34.45-38.403 76.879-.086 4.719-.171 9.517-.318 14.345-1.921 64.438-3.366 122.92-1.512 185.907 1.487 50.949 1.652 103.483.49 160.595l.63 9.688a2.92 2.92 0 0 1-.006.459c.067 1.285.784 7.797 1.891 11.021 2.644 7.712 16.396 30.068 35.068 30.068l.82-.019c.525-.004 47.833-.598 100.349-.598z"/><path fill="#9C9C9C" d="M392.83 155.943c-8.916 0-17.264-.293-24.65-.606-8.844-.392-17.92-.11-26.672.159-9.382.294-19.082.588-28.666.092-19.069-.973-38.531-.894-57.344-.808-13.58.061-27.625.116-41.438-.214l-6.64-.177c-12.577-.361-35.998-1.028-44.101-.894-5.441.073-10.9-.104-16.377-.288-7.589-.257-15.447-.521-22.999-.019-18.728 1.254-45.747.998-65.686-.624a3.054 3.054 0 0 1-2.803-3.292c.129-1.683 1.665-2.932 3.293-2.803 19.694 1.591 46.322 1.854 64.792.612 7.846-.514 15.863-.251 23.611.006 5.373.184 10.728.349 16.077.288 8.207-.147 31.738.539 44.364.894l6.61.184c13.733.336 27.729.281 41.267.214 18.923-.08 38.458-.166 57.681.82 9.326.478 18.904.184 28.164-.098 8.874-.27 18.023-.539 27.13-.166 10.814.471 23.696.881 37.326.379 26.481-.973 52.926-1.071 78.574-.312.397-.043 16.935-1.15 20.747-1.15 2.9 0 5.765.098 8.647.189 2.821.098 5.648.19 8.501.19 7.215 0 27.02-1.034 33.06-2.014 1.641-.281 3.237.857 3.507 2.528a3.053 3.053 0 0 1-2.527 3.506c-6.806 1.108-27.265 2.1-34.039 2.1-2.926 0-5.814-.098-8.703-.19-2.809-.092-5.618-.19-8.445-.19-3.611 0-20.472 1.132-20.643 1.145-25.82-.765-52.118-.648-78.465.318-4.487.16-8.887.221-13.153.221zM102.069 117.84c-2.087 0-4.167-.189-5.992-.881a3.053 3.053 0 0 1-1.787-3.941c.593-1.591 2.362-2.405 3.941-1.787 1.836.685 4.915.489 7.62.33 3.482-.214 6.304-.134 9.309-.116 3.751.049 7.521.092 11.273-.042 4.969-.166 9.915-.379 14.853-.594 10.68-.453 21.726-.924 32.754-.924 1.689 0 3.06 1.371 3.06 3.06s-1.371 3.06-3.06 3.06c-10.9 0-21.873.471-32.497.924-4.958.208-9.915.416-14.908.593-3.837.129-7.687.092-11.549.043-2.87-.03-5.544-.11-8.855.104-1.34.085-2.754.171-4.162.171zm278.827 11.94h-.116c-6.695 0-11.86-1.922-14.578-6.61-.942-1.157-3.929-5-3.237-10.692.648-5.416 4.321-10.208 10.912-14.614 7.044-4.707 11.444-2.509 17.081 1.604 5.942 4.339 8.292 11.616 5.851 19.113-2.381 7.319-8.483 11.199-15.913 11.199zm.521-28.397c-1.041 0-2.356.557-4.138 1.75-5.036 3.366-7.809 6.873-8.237 10.435-.453 3.757 1.909 6.469 1.935 6.493.165.177.312.379.422.594 2.001 3.629 5.496 4.418 8.685 4.437l-.643 3.054v-3.06c6.119 0 9.271-2.858 10.832-7.644 1.347-4.137 1.107-9.743-3.28-12.938-2.835-2.068-4.169-3.121-5.576-3.121zm59.792 30.141c-6.799 0-12.093-3.25-14.144-8.703l-1.836-4.015a3.062 3.062 0 0 1-.269-1.12c-.343-6.91 1.726-13.097 5.832-17.405 5.612-5.9 14.357-6.806 21.016-2.026 6.23 4.48 8.984 12.234 7.014 19.762-1.928 7.399-7.778 12.527-15.251 13.378a21.56 21.56 0 0 1-2.362.129zm-10.153-14.7l1.659 3.66c1.688 4.461 6.499 4.926 8.494 4.926.563 0 1.12-.03 1.671-.098 5.863-.661 9.027-5 10.024-8.837 1.053-4.021.38-9.608-4.669-13.238-4.254-3.072-9.419-2.497-13.006 1.273-2.833 2.969-4.301 7.326-4.173 12.314zm72.644 13.537c-7.368 0-13.929-3.831-16.726-9.755-2.54-5.398-1.475-11.554 2.932-16.897 5.275-6.383 17.454-8.134 23.733-2.858 5.416 4.535 7.876 11.641 6.267 18.097-1.407 5.667-5.691 9.651-11.738 10.936-1.48.312-2.98.477-4.468.477zm.191-26.714c-3.593 0-7.313 1.591-9.272 3.954-2.876 3.482-3.629 7.179-2.117 10.386 2.142 4.535 8.366 7.191 14.395 5.906 3.715-.79 6.229-3.072 7.063-6.432 1.034-4.137-.68-8.929-4.26-11.928-1.869-1.561-4.188-1.886-5.809-1.886zM283.417 464.079c-.82 0-1.646-.38-2.283-1.083-1.138-1.255-.832-3.336.417-4.475 2.209-2.013 8.708-3.372 69.021-1.077 4.21.159 6.891.337 7.803.27 4.168-.03 8.323-.024 12.491 0l2.876.013c21.751.122 42.21-.558 62.124-1.946 2.362-.159 4.756-.257 7.173-.355 7.044-.281 14.333-.563 20.918-2.766a3.07 3.07 0 0 1 3.874 1.934 3.072 3.072 0 0 1-1.934 3.874c-7.411 2.473-15.142 2.778-22.613 3.072-2.351.098-4.688.184-6.983.349-20.062 1.396-40.515 2.051-62.583 1.959l-2.876-.013c-4.144-.03-8.269-.03-12.418 0-.588.062-3.696-.104-8.078-.27-39.908-1.523-61.824-1.597-65.104-.22-.546.502-1.188.734-1.825.734zm124.193-94.756c-2.02 0-4.052-.122-6.083-.392-7.265-.985-14.315-.691-21.787-.379-4.756.196-9.664.41-14.646.245-.899-.03-3.47-.196-7.179-.44-55.925-3.647-70.753-2.674-73.336-1.2-1.23 1.157-3.066 1.035-4.229-.196-1.157-1.23-1.01-3.237.22-4.4 3.28-3.115 17.442-4.241 77.742-.306 3.611.232 6.108.392 6.989.422 4.725.171 9.541-.049 14.187-.239 7.398-.318 15.067-.63 22.857.435 6.77.894 13.642-.184 20.895-1.359 5.452-.881 11.064-1.561 16.726-1.775 2.057 0 4.987.649 8.391 1.408 3.574.79 11.977 2.674 13.513 1.414 1.285-1.04 3.231-.96 4.314.27 1.09 1.224 1.108 3.011-.079 4.149-3.709 3.568-11.53 1.824-19.082.135-2.853-.637-5.747-1.2-7.154-1.261-5.129 0-10.245.826-15.661 1.695-5.416.874-10.979 1.774-16.598 1.774zm31.574-92.179c-7.43 0-14.841-.594-22.136-1.163-5.79-.459-11.775-.936-17.534-1.083-6.365-.171-12.864.184-19.155.526-4.976.275-9.964.544-14.945.581-1.591.129-7.302-.189-14.921-.477-18.348-.673-61.298-2.264-65.814-.759-1.573.52-3.341-.294-3.898-1.867-.557-1.579.202-3.287 1.769-3.874 4.345-1.622 28.292-1.096 68.165.379 7.473.275 12.784.539 14.663.471 4.891-.037 9.774-.306 14.664-.569 6.407-.349 13.066-.704 19.639-.539 5.925.146 11.995.636 17.864 1.102 15.508 1.224 31.555 2.497 46.543-2.179 1.64-.496 3.335.397 3.837 2.007a3.064 3.064 0 0 1-2.007 3.837c-8.827 2.75-17.787 3.607-26.734 3.607zM145.448 279.2c-2.901 0-5.661-.704-7.895-2.821a3.056 3.056 0 0 1-.128-4.321 3.044 3.044 0 0 1 4.32-.128c2.308 2.167 7.46.82 12.001-.385 2.577-.68 5.012-1.328 7.142-1.402 4.969-.165 9.908.043 14.682.245 7.46.306 14.498.6 21.732-.379 7.681-1.065 15.318-1.09 22.693.104 5.41.875 10.521.429 15.63.429h.116l.006 1.267c1.683 0 3.054 1.995 3.06 3.69.006 1.732-1.677 3.274-3.176 3.385-5.606 0-11.193-.734-16.604-1.61-7.271-1.169-14.131-2.185-20.9-1.273-7.772 1.059-15.417.771-22.809.465-4.664-.202-9.48-.386-14.235-.214-1.432.043-3.537.612-5.771 1.199-3.077.819-6.559 1.749-9.864 1.749zm84.719 92.179c-.3 0-.612-.043-.912-.135-12.644-3.954-14.107-3.647-18.482-2.748-2.968.612-7.032 1.444-15.325 1.659-6.554.165-13.195-.178-19.59-.533-4.902-.263-9.811-.532-14.713-.563-2.472-.024-4.639.404-7.215.869-4.798.838-9.768 1.708-14.406-.012a3.062 3.062 0 0 1-1.799-3.941 3.065 3.065 0 0 1 3.941-1.799c3.097 1.163 7.032.459 11.212-.281 2.736-.478 5.649-.881 8.311-.955 5 .03 10.006.3 15.006.575 6.273.336 12.772.679 19.094.52 7.754-.196 11.506-.967 14.248-1.536 5.618-1.157 8.036-1.316 21.548 2.901a3.063 3.063 0 0 1 2.007 3.837 3.068 3.068 0 0 1-2.925 2.142zm0 92.485c-.3 0-.612-.042-.912-.134-12.632-3.948-14.125-3.648-18.477-2.742-2.968.612-7.038 1.444-15.331 1.658-6.652.172-13.244-.832-19.651-1.175-4.877-.27-9.761-1.212-14.657-1.212h-.104c-2.154 0-4.541 1.059-7.075 1.506-4.811.851-9.786 2.044-14.437.313-1.585-.601-2.393-2.197-1.799-3.782.594-1.592 2.362-2.302 3.941-1.714 3.103 1.169 7.044.496 11.236-.239 2.73-.477 5.588-.771 8.287-.936 4.988.036 9.976.312 14.951.587 6.292.343 12.797.691 19.162.532 7.748-.195 11.506-.967 14.248-1.529 5.618-1.157 8.029-1.328 21.542 2.895a3.063 3.063 0 0 1 2.007 3.837 3.083 3.083 0 0 1-2.931 2.135z"/></svg>